<mxfile host="app.diagrams.net" modified="2023-11-15T11:47:43.013Z" agent="Mozilla/5.0 (Windows NT 10.0; Win64; x64) AppleWebKit/537.36 (KHTML, like Gecko) Chrome/119.0.0.0 Safari/537.36 Edg/119.0.0.0" etag="gyZzbtl0X1ZKEvZQfNfj" version="22.1.1" type="github">
  <diagram id="C5RBs43oDa-KdzZeNtuy" name="Page-1">
    <mxGraphModel dx="983" dy="523" grid="1" gridSize="10" guides="1" tooltips="1" connect="1" arrows="1" fold="1" page="1" pageScale="1" pageWidth="827" pageHeight="1169" math="0" shadow="0">
      <root>
        <mxCell id="WIyWlLk6GJQsqaUBKTNV-0" />
        <mxCell id="WIyWlLk6GJQsqaUBKTNV-1" parent="WIyWlLk6GJQsqaUBKTNV-0" />
        <mxCell id="WIyWlLk6GJQsqaUBKTNV-2" value="" style="rounded=0;html=1;jettySize=auto;orthogonalLoop=1;fontSize=11;endArrow=block;endFill=0;endSize=8;strokeWidth=1;shadow=0;labelBackgroundColor=none;edgeStyle=orthogonalEdgeStyle;" parent="WIyWlLk6GJQsqaUBKTNV-1" source="WIyWlLk6GJQsqaUBKTNV-3" target="WIyWlLk6GJQsqaUBKTNV-6" edge="1">
          <mxGeometry relative="1" as="geometry" />
        </mxCell>
        <mxCell id="WIyWlLk6GJQsqaUBKTNV-3" value="发送请求" style="rounded=1;whiteSpace=wrap;html=1;fontSize=12;glass=0;strokeWidth=1;shadow=0;" parent="WIyWlLk6GJQsqaUBKTNV-1" vertex="1">
          <mxGeometry x="45" y="120" width="120" height="40" as="geometry" />
        </mxCell>
        <mxCell id="WIyWlLk6GJQsqaUBKTNV-5" value="Yes" style="edgeStyle=orthogonalEdgeStyle;rounded=0;html=1;jettySize=auto;orthogonalLoop=1;fontSize=11;endArrow=block;endFill=0;endSize=8;strokeWidth=1;shadow=0;labelBackgroundColor=none;" parent="WIyWlLk6GJQsqaUBKTNV-1" source="WIyWlLk6GJQsqaUBKTNV-6" target="WIyWlLk6GJQsqaUBKTNV-7" edge="1">
          <mxGeometry x="-0.0095" y="10" relative="1" as="geometry">
            <mxPoint as="offset" />
          </mxGeometry>
        </mxCell>
        <mxCell id="wBwmX6nGh7LynTAwKtqd-40" value="" style="edgeStyle=orthogonalEdgeStyle;rounded=0;orthogonalLoop=1;jettySize=auto;html=1;" edge="1" parent="WIyWlLk6GJQsqaUBKTNV-1" source="WIyWlLk6GJQsqaUBKTNV-6" target="wBwmX6nGh7LynTAwKtqd-39">
          <mxGeometry relative="1" as="geometry" />
        </mxCell>
        <mxCell id="wBwmX6nGh7LynTAwKtqd-41" value="No" style="edgeLabel;html=1;align=center;verticalAlign=middle;resizable=0;points=[];" vertex="1" connectable="0" parent="wBwmX6nGh7LynTAwKtqd-40">
          <mxGeometry x="-0.3874" y="-2" relative="1" as="geometry">
            <mxPoint as="offset" />
          </mxGeometry>
        </mxCell>
        <mxCell id="WIyWlLk6GJQsqaUBKTNV-6" value="拦截器&lt;br&gt;登录界面？" style="rhombus;whiteSpace=wrap;html=1;shadow=0;fontFamily=Helvetica;fontSize=12;align=center;strokeWidth=1;spacing=6;spacingTop=-4;" parent="WIyWlLk6GJQsqaUBKTNV-1" vertex="1">
          <mxGeometry x="50" y="190" width="110" height="60" as="geometry" />
        </mxCell>
        <mxCell id="wBwmX6nGh7LynTAwKtqd-30" value="" style="edgeStyle=orthogonalEdgeStyle;rounded=0;orthogonalLoop=1;jettySize=auto;html=1;" edge="1" parent="WIyWlLk6GJQsqaUBKTNV-1" source="WIyWlLk6GJQsqaUBKTNV-7" target="wBwmX6nGh7LynTAwKtqd-7">
          <mxGeometry relative="1" as="geometry" />
        </mxCell>
        <mxCell id="WIyWlLk6GJQsqaUBKTNV-7" value="根据用户名&lt;br&gt;密码查询用户" style="rounded=1;whiteSpace=wrap;html=1;fontSize=12;glass=0;strokeWidth=1;shadow=0;" parent="WIyWlLk6GJQsqaUBKTNV-1" vertex="1">
          <mxGeometry x="45" y="310" width="120" height="40" as="geometry" />
        </mxCell>
        <mxCell id="WIyWlLk6GJQsqaUBKTNV-8" value="No" style="rounded=0;html=1;jettySize=auto;orthogonalLoop=1;fontSize=11;endArrow=block;endFill=0;endSize=8;strokeWidth=1;shadow=0;labelBackgroundColor=none;edgeStyle=orthogonalEdgeStyle;" parent="WIyWlLk6GJQsqaUBKTNV-1" target="WIyWlLk6GJQsqaUBKTNV-11" edge="1">
          <mxGeometry x="0.3333" y="20" relative="1" as="geometry">
            <mxPoint as="offset" />
            <mxPoint x="359.95689655172396" y="220.0344827586208" as="sourcePoint" />
          </mxGeometry>
        </mxCell>
        <mxCell id="WIyWlLk6GJQsqaUBKTNV-9" value="Yes" style="edgeStyle=orthogonalEdgeStyle;rounded=0;html=1;jettySize=auto;orthogonalLoop=1;fontSize=11;endArrow=block;endFill=0;endSize=8;strokeWidth=1;shadow=0;labelBackgroundColor=none;" parent="WIyWlLk6GJQsqaUBKTNV-1" target="WIyWlLk6GJQsqaUBKTNV-12" edge="1">
          <mxGeometry y="10" relative="1" as="geometry">
            <mxPoint as="offset" />
            <mxPoint x="359.95689655172396" y="220.0344827586208" as="sourcePoint" />
          </mxGeometry>
        </mxCell>
        <mxCell id="WIyWlLk6GJQsqaUBKTNV-11" value="Repair Lamp" style="rounded=1;whiteSpace=wrap;html=1;fontSize=12;glass=0;strokeWidth=1;shadow=0;" parent="WIyWlLk6GJQsqaUBKTNV-1" vertex="1">
          <mxGeometry x="520" y="150" width="120" height="40" as="geometry" />
        </mxCell>
        <mxCell id="WIyWlLk6GJQsqaUBKTNV-12" value="Replace Bulb" style="rounded=1;whiteSpace=wrap;html=1;fontSize=12;glass=0;strokeWidth=1;shadow=0;" parent="WIyWlLk6GJQsqaUBKTNV-1" vertex="1">
          <mxGeometry x="640" y="190" width="120" height="40" as="geometry" />
        </mxCell>
        <mxCell id="wBwmX6nGh7LynTAwKtqd-3" value="" style="edgeStyle=orthogonalEdgeStyle;rounded=0;orthogonalLoop=1;jettySize=auto;html=1;" edge="1" parent="WIyWlLk6GJQsqaUBKTNV-1" source="wBwmX6nGh7LynTAwKtqd-0" target="wBwmX6nGh7LynTAwKtqd-2">
          <mxGeometry relative="1" as="geometry" />
        </mxCell>
        <mxCell id="wBwmX6nGh7LynTAwKtqd-0" value="Mysql" style="shape=cylinder3;whiteSpace=wrap;html=1;boundedLbl=1;backgroundOutline=1;size=15;fillColor=#fff2cc;strokeColor=#d6b656;" vertex="1" parent="WIyWlLk6GJQsqaUBKTNV-1">
          <mxGeometry x="410" y="720" width="60" height="80" as="geometry" />
        </mxCell>
        <mxCell id="wBwmX6nGh7LynTAwKtqd-1" value="Redis" style="shape=datastore;whiteSpace=wrap;html=1;fillColor=#f8cecc;strokeColor=#b85450;" vertex="1" parent="WIyWlLk6GJQsqaUBKTNV-1">
          <mxGeometry x="510" y="640" width="60" height="60" as="geometry" />
        </mxCell>
        <mxCell id="wBwmX6nGh7LynTAwKtqd-2" value="基于sharding-phere&lt;br&gt;用户数据分表" style="whiteSpace=wrap;html=1;" vertex="1" parent="WIyWlLk6GJQsqaUBKTNV-1">
          <mxGeometry x="380" y="830" width="120" height="60" as="geometry" />
        </mxCell>
        <mxCell id="wBwmX6nGh7LynTAwKtqd-5" value="" style="edgeStyle=orthogonalEdgeStyle;rounded=0;orthogonalLoop=1;jettySize=auto;html=1;" edge="1" parent="WIyWlLk6GJQsqaUBKTNV-1" source="wBwmX6nGh7LynTAwKtqd-4" target="WIyWlLk6GJQsqaUBKTNV-3">
          <mxGeometry relative="1" as="geometry" />
        </mxCell>
        <mxCell id="wBwmX6nGh7LynTAwKtqd-4" value="用户功能模块" style="rounded=1;whiteSpace=wrap;html=1;fontSize=12;glass=0;strokeWidth=1;shadow=0;" vertex="1" parent="WIyWlLk6GJQsqaUBKTNV-1">
          <mxGeometry x="45" y="50" width="120" height="40" as="geometry" />
        </mxCell>
        <mxCell id="wBwmX6nGh7LynTAwKtqd-12" value="" style="edgeStyle=orthogonalEdgeStyle;rounded=0;orthogonalLoop=1;jettySize=auto;html=1;entryX=0;entryY=0.5;entryDx=0;entryDy=0;" edge="1" parent="WIyWlLk6GJQsqaUBKTNV-1" source="wBwmX6nGh7LynTAwKtqd-7" target="wBwmX6nGh7LynTAwKtqd-13">
          <mxGeometry relative="1" as="geometry">
            <mxPoint x="480" y="220" as="targetPoint" />
          </mxGeometry>
        </mxCell>
        <mxCell id="wBwmX6nGh7LynTAwKtqd-14" value="No" style="edgeLabel;html=1;align=center;verticalAlign=middle;resizable=0;points=[];" vertex="1" connectable="0" parent="wBwmX6nGh7LynTAwKtqd-12">
          <mxGeometry x="-0.1585" y="3" relative="1" as="geometry">
            <mxPoint as="offset" />
          </mxGeometry>
        </mxCell>
        <mxCell id="wBwmX6nGh7LynTAwKtqd-16" style="edgeStyle=orthogonalEdgeStyle;rounded=0;orthogonalLoop=1;jettySize=auto;html=1;entryX=0.5;entryY=0;entryDx=0;entryDy=0;" edge="1" parent="WIyWlLk6GJQsqaUBKTNV-1" source="wBwmX6nGh7LynTAwKtqd-7" target="wBwmX6nGh7LynTAwKtqd-15">
          <mxGeometry relative="1" as="geometry" />
        </mxCell>
        <mxCell id="wBwmX6nGh7LynTAwKtqd-17" value="Yes" style="edgeLabel;html=1;align=center;verticalAlign=middle;resizable=0;points=[];" vertex="1" connectable="0" parent="wBwmX6nGh7LynTAwKtqd-16">
          <mxGeometry x="-0.1918" y="1" relative="1" as="geometry">
            <mxPoint as="offset" />
          </mxGeometry>
        </mxCell>
        <mxCell id="wBwmX6nGh7LynTAwKtqd-7" value="用户存在？" style="rhombus;whiteSpace=wrap;html=1;shadow=0;fontFamily=Helvetica;fontSize=12;align=center;strokeWidth=1;spacing=6;spacingTop=-4;fillColor=#fff2cc;strokeColor=#d6b656;" vertex="1" parent="WIyWlLk6GJQsqaUBKTNV-1">
          <mxGeometry x="60" y="390" width="90" height="60" as="geometry" />
        </mxCell>
        <mxCell id="wBwmX6nGh7LynTAwKtqd-43" value="" style="edgeStyle=orthogonalEdgeStyle;rounded=0;orthogonalLoop=1;jettySize=auto;html=1;" edge="1" parent="WIyWlLk6GJQsqaUBKTNV-1" source="wBwmX6nGh7LynTAwKtqd-13" target="wBwmX6nGh7LynTAwKtqd-42">
          <mxGeometry relative="1" as="geometry" />
        </mxCell>
        <mxCell id="wBwmX6nGh7LynTAwKtqd-13" value="注册" style="rounded=1;whiteSpace=wrap;html=1;fontSize=12;glass=0;strokeWidth=1;shadow=0;" vertex="1" parent="WIyWlLk6GJQsqaUBKTNV-1">
          <mxGeometry x="200" y="400" width="90" height="40" as="geometry" />
        </mxCell>
        <mxCell id="wBwmX6nGh7LynTAwKtqd-20" value="" style="edgeStyle=orthogonalEdgeStyle;rounded=0;orthogonalLoop=1;jettySize=auto;html=1;entryX=0.503;entryY=0.057;entryDx=0;entryDy=0;entryPerimeter=0;" edge="1" parent="WIyWlLk6GJQsqaUBKTNV-1" source="wBwmX6nGh7LynTAwKtqd-15" target="wBwmX6nGh7LynTAwKtqd-21">
          <mxGeometry relative="1" as="geometry">
            <mxPoint x="414.02857142857147" y="360" as="targetPoint" />
          </mxGeometry>
        </mxCell>
        <mxCell id="wBwmX6nGh7LynTAwKtqd-15" value="根据用户名称和登录前缀查询redis" style="rounded=1;whiteSpace=wrap;html=1;fontSize=12;glass=0;strokeWidth=1;shadow=0;fillColor=#f8cecc;strokeColor=#b85450;" vertex="1" parent="WIyWlLk6GJQsqaUBKTNV-1">
          <mxGeometry x="45" y="500" width="120" height="40" as="geometry" />
        </mxCell>
        <mxCell id="wBwmX6nGh7LynTAwKtqd-26" value="" style="edgeStyle=orthogonalEdgeStyle;rounded=0;orthogonalLoop=1;jettySize=auto;html=1;" edge="1" parent="WIyWlLk6GJQsqaUBKTNV-1" source="wBwmX6nGh7LynTAwKtqd-21" target="wBwmX6nGh7LynTAwKtqd-23">
          <mxGeometry relative="1" as="geometry" />
        </mxCell>
        <mxCell id="wBwmX6nGh7LynTAwKtqd-27" value="No" style="edgeLabel;html=1;align=center;verticalAlign=middle;resizable=0;points=[];" vertex="1" connectable="0" parent="wBwmX6nGh7LynTAwKtqd-26">
          <mxGeometry x="-0.169" y="-2" relative="1" as="geometry">
            <mxPoint as="offset" />
          </mxGeometry>
        </mxCell>
        <mxCell id="wBwmX6nGh7LynTAwKtqd-21" value="redis中已存在？" style="rhombus;whiteSpace=wrap;html=1;shadow=0;fontFamily=Helvetica;fontSize=12;align=center;strokeWidth=1;spacing=6;spacingTop=-4;" vertex="1" parent="WIyWlLk6GJQsqaUBKTNV-1">
          <mxGeometry x="60" y="570" width="90" height="60" as="geometry" />
        </mxCell>
        <mxCell id="wBwmX6nGh7LynTAwKtqd-29" value="" style="edgeStyle=orthogonalEdgeStyle;rounded=0;orthogonalLoop=1;jettySize=auto;html=1;" edge="1" parent="WIyWlLk6GJQsqaUBKTNV-1" source="wBwmX6nGh7LynTAwKtqd-23" target="wBwmX6nGh7LynTAwKtqd-28">
          <mxGeometry relative="1" as="geometry" />
        </mxCell>
        <mxCell id="wBwmX6nGh7LynTAwKtqd-23" value="生成UUID作为token&lt;br&gt;并保存用户信息到redis" style="rounded=1;whiteSpace=wrap;html=1;fontSize=12;glass=0;strokeWidth=1;shadow=0;" vertex="1" parent="WIyWlLk6GJQsqaUBKTNV-1">
          <mxGeometry x="45" y="680" width="120" height="50" as="geometry" />
        </mxCell>
        <mxCell id="wBwmX6nGh7LynTAwKtqd-33" style="edgeStyle=orthogonalEdgeStyle;rounded=0;orthogonalLoop=1;jettySize=auto;html=1;exitX=0;exitY=0.5;exitDx=0;exitDy=0;entryX=0;entryY=0.5;entryDx=0;entryDy=0;" edge="1" parent="WIyWlLk6GJQsqaUBKTNV-1" source="wBwmX6nGh7LynTAwKtqd-28" target="WIyWlLk6GJQsqaUBKTNV-3">
          <mxGeometry relative="1" as="geometry">
            <mxPoint x="29.97" y="149.97" as="targetPoint" />
            <mxPoint x="29.97" y="819.97" as="sourcePoint" />
            <Array as="points">
              <mxPoint x="10" y="780" />
              <mxPoint x="10" y="140" />
            </Array>
          </mxGeometry>
        </mxCell>
        <mxCell id="wBwmX6nGh7LynTAwKtqd-28" value="返回token" style="rounded=1;whiteSpace=wrap;html=1;fontSize=12;glass=0;strokeWidth=1;shadow=0;" vertex="1" parent="WIyWlLk6GJQsqaUBKTNV-1">
          <mxGeometry x="45" y="760" width="120" height="40" as="geometry" />
        </mxCell>
        <mxCell id="wBwmX6nGh7LynTAwKtqd-39" value="注册" style="rounded=1;whiteSpace=wrap;html=1;fontSize=12;glass=0;strokeWidth=1;shadow=0;" vertex="1" parent="WIyWlLk6GJQsqaUBKTNV-1">
          <mxGeometry x="240" y="200" width="120" height="40" as="geometry" />
        </mxCell>
        <mxCell id="wBwmX6nGh7LynTAwKtqd-47" value="" style="edgeStyle=orthogonalEdgeStyle;rounded=0;orthogonalLoop=1;jettySize=auto;html=1;" edge="1" parent="WIyWlLk6GJQsqaUBKTNV-1" source="wBwmX6nGh7LynTAwKtqd-42" target="wBwmX6nGh7LynTAwKtqd-46">
          <mxGeometry relative="1" as="geometry" />
        </mxCell>
        <mxCell id="wBwmX6nGh7LynTAwKtqd-49" value="yes" style="edgeLabel;html=1;align=center;verticalAlign=middle;resizable=0;points=[];" vertex="1" connectable="0" parent="wBwmX6nGh7LynTAwKtqd-47">
          <mxGeometry x="-0.4743" y="2" relative="1" as="geometry">
            <mxPoint as="offset" />
          </mxGeometry>
        </mxCell>
        <mxCell id="wBwmX6nGh7LynTAwKtqd-51" value="" style="edgeStyle=orthogonalEdgeStyle;rounded=0;orthogonalLoop=1;jettySize=auto;html=1;" edge="1" parent="WIyWlLk6GJQsqaUBKTNV-1" source="wBwmX6nGh7LynTAwKtqd-42" target="wBwmX6nGh7LynTAwKtqd-50">
          <mxGeometry relative="1" as="geometry" />
        </mxCell>
        <mxCell id="wBwmX6nGh7LynTAwKtqd-52" value="No" style="edgeLabel;html=1;align=center;verticalAlign=middle;resizable=0;points=[];" vertex="1" connectable="0" parent="wBwmX6nGh7LynTAwKtqd-51">
          <mxGeometry x="-0.1182" y="2" relative="1" as="geometry">
            <mxPoint as="offset" />
          </mxGeometry>
        </mxCell>
        <mxCell id="wBwmX6nGh7LynTAwKtqd-42" value="布隆过滤器&lt;br&gt;用户名存在？" style="rhombus;whiteSpace=wrap;html=1;shadow=0;fontFamily=Helvetica;fontSize=12;align=center;strokeWidth=1;spacing=6;spacingTop=-4;" vertex="1" parent="WIyWlLk6GJQsqaUBKTNV-1">
          <mxGeometry x="322" y="385" width="94" height="70" as="geometry" />
        </mxCell>
        <mxCell id="wBwmX6nGh7LynTAwKtqd-48" style="edgeStyle=orthogonalEdgeStyle;rounded=0;orthogonalLoop=1;jettySize=auto;html=1;entryX=0.5;entryY=1;entryDx=0;entryDy=0;" edge="1" parent="WIyWlLk6GJQsqaUBKTNV-1" source="wBwmX6nGh7LynTAwKtqd-46" target="wBwmX6nGh7LynTAwKtqd-13">
          <mxGeometry relative="1" as="geometry" />
        </mxCell>
        <mxCell id="wBwmX6nGh7LynTAwKtqd-46" value="抛出异常&lt;br&gt;提示用户名存在" style="rounded=1;whiteSpace=wrap;html=1;fontSize=12;glass=0;strokeWidth=1;shadow=0;" vertex="1" parent="WIyWlLk6GJQsqaUBKTNV-1">
          <mxGeometry x="324" y="500" width="90" height="40" as="geometry" />
        </mxCell>
        <mxCell id="wBwmX6nGh7LynTAwKtqd-50" value="获取分布式锁&lt;br&gt;防止恶意插入" style="rounded=1;whiteSpace=wrap;html=1;fontSize=12;glass=0;strokeWidth=1;shadow=0;fillColor=#f8cecc;strokeColor=#b85450;" vertex="1" parent="WIyWlLk6GJQsqaUBKTNV-1">
          <mxGeometry x="460" y="400" width="90" height="40" as="geometry" />
        </mxCell>
      </root>
    </mxGraphModel>
  </diagram>
</mxfile>
